STARTFONT 2.1
COMMENT Used arabic glyphs from acon. Although not as sophisticated as the glyphs
COMMENT that were in the original u_vga16, yet they are clearer (less eye fatiguing)
FONT -Bolkhov-VGA-Medium-R-Normal--16-160-75-75-C-80-iso10646-1
SIZE 16 75 75
FONTBOUNDINGBOX 8 16 0 -4
STARTPROPERTIES 24
FOUNDRY "Bolkhov"
FAMILY_NAME "VGA"
WEIGHT_NAME "Medium"
SLANT "R"
SETWIDTH_NAME "Normal"
ADD_STYLE_NAME ""
PIXEL_SIZE 16
POINT_SIZE 160
RESOLUTION_X 75
RESOLUTION_Y 75
SPACING "C"
AVERAGE_WIDTH 80
CHARSET_REGISTRY "iso10646"
CHARSET_ENCODING "1"
CAP_HEIGHT 10
X_HEIGHT 7
FONT_ASCENT 12
FONT_DESCENT 4
FACE_NAME "Vga Unicode"
COPYRIGHT "Copyright (c) 2000 Dmitry Bolkhovityanov, bolkhov@inp.nsk.su"
HOMEPAGE "http://www.inp.nsk.su/~bolkhov/files/fonts/univga/"
NOTICE "VGA is a trademark of IBM Corporation."
DEFAULT_CHAR 0
_GBDFED_INFO "Edited with gbdfed 1.5."
ENDPROPERTIES
CHARS 183
STARTCHAR bar
ENCODING 124
SWIDTH 480 0
DWIDTH 8 0
BBX 8 16 0 -4
BITMAP
00
00
18
18
18
18
18
18
18
18
18
18
00
00
00
00
ENDCHAR
STARTCHAR C00ba
ENCODING 1548
SWIDTH 480 0
DWIDTH 8 0
BBX 8 16 0 -4
BITMAP
00
00
00
00
08
10
10
18
1C
08
00
00
00
00
00
00
ENDCHAR
STARTCHAR C00bb
ENCODING 1563
SWIDTH 480 0
DWIDTH 8 0
BBX 8 16 0 -4
BITMAP
00
00
04
08
10
10
18
1C
08
00
08
1C
08
00
00
00
ENDCHAR
STARTCHAR C00bf
ENCODING 1567
SWIDTH 480 0
DWIDTH 8 0
BBX 8 16 0 -4
BITMAP
00
1C
36
63
62
20
10
08
08
00
08
1C
08
00
00
00
ENDCHAR
STARTCHAR C00c1
ENCODING 1569
SWIDTH 480 0
DWIDTH 8 0
BBX 8 16 0 -4
BITMAP
00
00
00
00
00
0C
1E
30
1E
1C
20
00
00
00
00
00
ENDCHAR
STARTCHAR C00c2
ENCODING 1570
SWIDTH 480 0
DWIDTH 8 0
BBX 8 16 0 -4
BITMAP
3F
40
08
08
08
08
08
08
08
08
00
00
00
00
00
00
ENDCHAR
STARTCHAR C00c3
ENCODING 1571
SWIDTH 480 0
DWIDTH 8 0
BBX 8 16 0 -4
BITMAP
18
20
1C
20
08
08
08
08
08
08
08
00
00
00
00
00
ENDCHAR
STARTCHAR C00c4
ENCODING 1572
SWIDTH 480 0
DWIDTH 8 0
BBX 8 16 0 -4
BITMAP
00
18
20
18
20
0C
1E
11
1F
0F
02
7C
38
00
00
00
ENDCHAR
STARTCHAR C00c5
ENCODING 1573
SWIDTH 480 0
DWIDTH 8 0
BBX 8 16 0 -4
BITMAP
08
18
0C
08
08
08
08
08
00
0C
10
0C
10
00
00
00
ENDCHAR
STARTCHAR C00c6
ENCODING 1574
SWIDTH 480 0
DWIDTH 8 0
BBX 8 16 0 -4
BITMAP
00
00
60
80
60
8C
1E
13
89
84
84
FC
78
00
00
00
ENDCHAR
STARTCHAR C00c7
ENCODING 1575
SWIDTH 480 0
DWIDTH 8 0
BBX 8 16 0 -4
BITMAP
08
18
0C
08
08
08
08
08
08
08
00
00
00
00
00
00
ENDCHAR
STARTCHAR C00c8
ENCODING 1576
SWIDTH 480 0
DWIDTH 8 0
BBX 8 16 0 -4
BITMAP
00
00
00
00
00
81
81
81
FF
7E
00
18
00
00
00
00
ENDCHAR
STARTCHAR C00c9
ENCODING 1577
SWIDTH 480 0
DWIDTH 8 0
BBX 8 16 0 -4
BITMAP
00
00
33
00
06
0F
11
11
1F
0E
00
00
00
00
00
00
ENDCHAR
STARTCHAR C00ca
ENCODING 1578
SWIDTH 480 0
DWIDTH 8 0
BBX 8 16 0 -4
BITMAP
00
00
00
36
00
81
81
81
FF
7E
00
00
00
00
00
00
ENDCHAR
STARTCHAR C00cb
ENCODING 1579
SWIDTH 480 0
DWIDTH 8 0
BBX 8 16 0 -4
BITMAP
00
00
18
66
00
81
81
81
FF
7E
00
00
00
00
00
00
ENDCHAR
STARTCHAR C00cc
ENCODING 1580
SWIDTH 480 0
DWIDTH 8 0
BBX 8 16 0 -4
BITMAP
00
00
00
00
00
38
7F
0F
10
20
46
40
3F
1E
00
00
ENDCHAR
STARTCHAR C00cd
ENCODING 1581
SWIDTH 480 0
DWIDTH 8 0
BBX 8 16 0 -4
BITMAP
00
00
00
00
00
38
7F
0F
10
20
40
40
3F
1E
00
00
ENDCHAR
STARTCHAR C00ce
ENCODING 1582
SWIDTH 480 0
DWIDTH 8 0
BBX 8 16 0 -4
BITMAP
00
00
00
18
00
38
7F
0F
10
20
40
40
3F
1E
00
00
ENDCHAR
STARTCHAR C00cf
ENCODING 1583
SWIDTH 480 0
DWIDTH 8 0
BBX 8 16 0 -4
BITMAP
00
00
00
00
0C
1E
03
01
23
7E
3C
00
00
00
00
00
ENDCHAR
STARTCHAR C00d0
ENCODING 1584
SWIDTH 480 0
DWIDTH 8 0
BBX 8 16 0 -4
BITMAP
00
00
0C
00
0C
1E
03
01
23
7E
3C
00
00
00
00
00
ENDCHAR
STARTCHAR C00d1
ENCODING 1585
SWIDTH 480 0
DWIDTH 8 0
BBX 8 16 0 -4
BITMAP
00
00
00
00
00
02
07
03
01
01
02
7C
38
00
00
00
ENDCHAR
STARTCHAR C00d2
ENCODING 1586
SWIDTH 480 0
DWIDTH 8 0
BBX 8 16 0 -4
BITMAP
00
00
00
06
00
02
07
03
01
01
02
7C
38
00
00
00
ENDCHAR
STARTCHAR C00d3
ENCODING 1587
SWIDTH 480 0
DWIDTH 8 0
BBX 8 16 0 -4
BITMAP
00
00
00
00
00
00
11
15
1F
0A
84
84
FC
78
00
00
ENDCHAR
STARTCHAR C00d4
ENCODING 1588
SWIDTH 480 0
DWIDTH 8 0
BBX 8 16 0 -4
BITMAP
00
00
00
04
11
00
11
15
1F
0A
84
84
FC
78
00
00
ENDCHAR
STARTCHAR C00d5
ENCODING 1589
SWIDTH 480 0
DWIDTH 8 0
BBX 8 16 0 -4
BITMAP
00
00
00
00
00
0E
11
3F
1E
08
84
84
FC
78
00
00
ENDCHAR
STARTCHAR C00d6
ENCODING 1590
SWIDTH 480 0
DWIDTH 8 0
BBX 8 16 0 -4
BITMAP
00
00
00
06
00
0E
11
3F
1E
08
84
84
FC
78
00
00
ENDCHAR
STARTCHAR C00d7
ENCODING 1591
SWIDTH 480 0
DWIDTH 8 0
BBX 8 16 0 -4
BITMAP
10
30
18
10
12
17
1B
11
FE
FC
00
00
00
00
00
00
ENDCHAR
STARTCHAR C00d8
ENCODING 1592
SWIDTH 480 0
DWIDTH 8 0
BBX 8 16 0 -4
BITMAP
10
33
18
10
12
17
1B
11
FE
FC
00
00
00
00
00
00
ENDCHAR
STARTCHAR C00d9
ENCODING 1593
SWIDTH 480 0
DWIDTH 8 0
BBX 8 16 0 -4
BITMAP
00
00
00
30
78
40
40
38
40
80
80
80
7E
3C
00
00
ENDCHAR
STARTCHAR C00da
ENCODING 1594
SWIDTH 480 0
DWIDTH 8 0
BBX 8 16 0 -4
BITMAP
00
30
00
30
78
40
40
38
40
80
80
80
7E
3C
00
00
ENDCHAR
STARTCHAR C00e0
ENCODING 1600
SWIDTH 480 0
DWIDTH 8 0
BBX 8 16 0 -4
BITMAP
00
00
00
00
00
00
00
00
FF
FF
00
00
00
00
00
00
ENDCHAR
STARTCHAR C00e1
ENCODING 1601
SWIDTH 480 0
DWIDTH 8 0
BBX 8 16 0 -4
BITMAP
00
00
06
00
02
07
05
87
81
FF
7E
00
00
00
00
00
ENDCHAR
STARTCHAR C00e2
ENCODING 1602
SWIDTH 480 0
DWIDTH 8 0
BBX 8 16 0 -4
BITMAP
00
00
1B
00
04
0E
09
0B
07
41
42
7C
38
00
00
00
ENDCHAR
STARTCHAR C00e3
ENCODING 1603
SWIDTH 480 0
DWIDTH 8 0
BBX 8 16 0 -4
BITMAP
01
03
01
19
21
19
21
01
81
81
FF
7E
00
00
00
00
ENDCHAR
STARTCHAR C00e4
ENCODING 1604
SWIDTH 480 0
DWIDTH 8 0
BBX 8 16 0 -4
BITMAP
01
03
03
01
01
01
01
01
81
81
FF
7E
00
00
00
00
ENDCHAR
STARTCHAR C00e5
ENCODING 1605
SWIDTH 480 0
DWIDTH 8 0
BBX 8 16 0 -4
BITMAP
00
00
00
00
0C
16
07
1F
22
20
20
20
20
20
00
00
ENDCHAR
STARTCHAR C00e6
ENCODING 1606
SWIDTH 480 0
DWIDTH 8 0
BBX 8 16 0 -4
BITMAP
00
00
00
18
00
01
03
23
41
41
41
7E
3C
00
00
00
ENDCHAR
STARTCHAR C00fd
ENCODING 1607
SWIDTH 480 0
DWIDTH 8 0
BBX 8 16 0 -4
BITMAP
00
00
00
38
1C
0A
15
15
F9
EF
06
00
00
00
00
00
ENDCHAR
STARTCHAR C00e8
ENCODING 1608
SWIDTH 480 0
DWIDTH 8 0
BBX 8 16 0 -4
BITMAP
00
00
00
00
00
0C
1E
11
1F
0F
02
7C
38
00
00
00
ENDCHAR
STARTCHAR C00e9
ENCODING 1609
SWIDTH 480 0
DWIDTH 8 0
BBX 8 16 0 -4
BITMAP
00
00
00
00
03
07
08
0E
47
41
41
7E
3C
00
00
00
ENDCHAR
STARTCHAR C00ea
ENCODING 1610
SWIDTH 480 0
DWIDTH 8 0
BBX 8 16 0 -4
BITMAP
00
00
00
03
07
08
0E
47
41
41
7E
3C
00
36
00
00
ENDCHAR
STARTCHAR C00f9
ENCODING 64400
SWIDTH 480 0
DWIDTH 8 0
BBX 8 16 0 -4
BITMAP
01
03
04
08
10
10
0E
01
FF
FE
00
00
00
00
00
00
ENDCHAR
STARTCHAR C00f9
ENCODING 64401
SWIDTH 480 0
DWIDTH 8 0
BBX 8 16 0 -4
BITMAP
01
03
04
08
10
10
0E
01
FF
FE
00
00
00
00
00
00
ENDCHAR
STARTCHAR C00e9
ENCODING 64508
SWIDTH 480 0
DWIDTH 8 0
BBX 8 16 0 -4
BITMAP
00
00
00
00
03
07
08
0E
47
41
41
7E
3C
00
00
00
ENDCHAR
STARTCHAR C008f
ENCODING 64509
SWIDTH 480 0
DWIDTH 8 0
BBX 8 16 0 -4
BITMAP
00
00
00
00
00
00
0C
1E
13
89
84
84
FC
78
00
00
ENDCHAR
STARTCHAR C00fe
ENCODING 64510
SWIDTH 480 0
DWIDTH 8 0
BBX 8 16 0 -4
BITMAP
00
00
00
00
00
01
03
03
FE
FC
00
33
00
00
00
00
ENDCHAR
STARTCHAR C00fe
ENCODING 64511
SWIDTH 480 0
DWIDTH 8 0
BBX 8 16 0 -4
BITMAP
00
00
00
00
00
01
03
03
FE
FC
00
33
00
00
00
00
ENDCHAR
STARTCHAR uniFCF2
ENCODING 64754
SWIDTH 480 0
DWIDTH 8 0
BBX 8 16 0 -4
BITMAP
0E
F0
02
92
9C
60
00
00
FF
FF
00
00
00
00
00
00
ENDCHAR
STARTCHAR uniFCF3
ENCODING 64755
SWIDTH 480 0
DWIDTH 8 0
BBX 8 16 0 -4
BITMAP
18
24
18
60
02
92
9C
60
FF
FF
00
00
00
00
00
00
ENDCHAR
STARTCHAR uniFCF4
ENCODING 64756
SWIDTH 480 0
DWIDTH 8 0
BBX 8 16 0 -4
BITMAP
02
12
9C
60
0E
70
00
00
FF
FF
00
00
00
00
00
00
ENDCHAR
STARTCHAR uniFD3C
ENCODING 64828
SWIDTH 480 0
DWIDTH 8 0
BBX 8 16 0 -4
BITMAP
10
28
50
28
08
08
08
08
07
03
00
00
00
00
00
00
ENDCHAR
STARTCHAR uniFD3D
ENCODING 64829
SWIDTH 480 0
DWIDTH 8 0
BBX 8 16 0 -4
BITMAP
10
28
50
24
0C
06
04
04
04
04
00
00
00
00
00
00
ENDCHAR
STARTCHAR uniFE71
ENCODING 65137
SWIDTH 480 0
DWIDTH 8 0
BBX 8 16 0 -4
BITMAP
06
18
60
06
18
60
00
00
FF
FF
00
00
00
00
00
00
ENDCHAR
STARTCHAR uniFE77
ENCODING 65143
SWIDTH 480 0
DWIDTH 8 0
BBX 8 16 0 -4
BITMAP
00
06
18
60
00
00
00
00
FF
FF
00
00
00
00
00
00
ENDCHAR
STARTCHAR uniFE79
ENCODING 65145
SWIDTH 480 0
DWIDTH 8 0
BBX 8 16 0 -4
BITMAP
18
24
14
18
60
00
00
00
FF
FF
00
00
00
00
00
00
ENDCHAR
STARTCHAR uniFE7B
ENCODING 65147
SWIDTH 480 0
DWIDTH 8 0
BBX 8 16 0 -4
BITMAP
00
00
00
00
00
00
00
00
FF
FF
00
06
18
60
00
00
ENDCHAR
STARTCHAR uniFE7D
ENCODING 65149
SWIDTH 480 0
DWIDTH 8 0
BBX 8 16 0 -4
BITMAP
02
12
92
9C
60
00
00
00
FF
FF
00
00
00
00
00
00
ENDCHAR
STARTCHAR uniFE7F
ENCODING 65151
SWIDTH 480 0
DWIDTH 8 0
BBX 8 16 0 -4
BITMAP
18
24
24
18
00
00
00
00
FF
FF
00
00
00
00
00
00
ENDCHAR
STARTCHAR C00c1
ENCODING 65152
SWIDTH 480 0
DWIDTH 8 0
BBX 8 16 0 -4
BITMAP
00
00
00
00
00
0C
1E
30
1E
1C
20
00
00
00
00
00
ENDCHAR
STARTCHAR C00c2
ENCODING 65153
SWIDTH 480 0
DWIDTH 8 0
BBX 8 16 0 -4
BITMAP
3F
40
08
08
08
08
08
08
08
08
00
00
00
00
00
00
ENDCHAR
STARTCHAR C0096
ENCODING 65154
SWIDTH 480 0
DWIDTH 8 0
BBX 8 16 0 -4
BITMAP
3F
40
08
08
08
08
08
08
07
03
00
00
00
00
00
00
ENDCHAR
STARTCHAR C00c3
ENCODING 65155
SWIDTH 480 0
DWIDTH 8 0
BBX 8 16 0 -4
BITMAP
18
20
1C
20
08
08
08
08
08
08
08
00
00
00
00
00
ENDCHAR
STARTCHAR C009d
ENCODING 65156
SWIDTH 480 0
DWIDTH 8 0
BBX 8 16 0 -4
BITMAP
18
20
1C
20
08
08
08
08
07
03
00
00
00
00
00
00
ENDCHAR
STARTCHAR C00c4
ENCODING 65157
SWIDTH 480 0
DWIDTH 8 0
BBX 8 16 0 -4
BITMAP
00
18
20
18
20
0C
1E
11
1F
0F
02
7C
38
00
00
00
ENDCHAR
STARTCHAR C00c4
ENCODING 65158
SWIDTH 480 0
DWIDTH 8 0
BBX 8 16 0 -4
BITMAP
00
18
20
18
20
0C
1E
11
1F
0F
02
7C
38
00
00
00
ENDCHAR
STARTCHAR C00c5
ENCODING 65159
SWIDTH 480 0
DWIDTH 8 0
BBX 8 16 0 -4
BITMAP
08
18
0C
08
08
08
08
08
00
0C
10
0C
10
00
00
00
ENDCHAR
STARTCHAR C009e
ENCODING 65160
SWIDTH 480 0
DWIDTH 8 0
BBX 8 16 0 -4
BITMAP
08
18
0C
08
08
08
08
08
07
33
40
30
40
00
00
00
ENDCHAR
STARTCHAR C00e9
ENCODING 65161
SWIDTH 480 0
DWIDTH 8 0
BBX 8 16 0 -4
BITMAP
00
00
60
80
63
87
08
0E
47
41
41
7E
3C
00
00
00
ENDCHAR
STARTCHAR C00c6
ENCODING 65162
SWIDTH 480 0
DWIDTH 8 0
BBX 8 16 0 -4
BITMAP
00
00
60
80
60
8C
1E
13
89
84
84
FC
78
00
00
00
ENDCHAR
STARTCHAR C00c0
ENCODING 65163
SWIDTH 480 0
DWIDTH 8 0
BBX 8 16 0 -4
BITMAP
00
06
08
06
08
01
03
03
FE
FC
00
00
00
00
00
00
ENDCHAR
STARTCHAR C00c0
ENCODING 65164
SWIDTH 480 0
DWIDTH 8 0
BBX 8 16 0 -4
BITMAP
00
18
20
18
20
04
0C
0C
FF
F3
00
00
00
00
00
00
ENDCHAR
STARTCHAR C00c7
ENCODING 65165
SWIDTH 480 0
DWIDTH 8 0
BBX 8 16 0 -4
BITMAP
08
18
0C
08
08
08
08
08
08
08
00
00
00
00
00
00
ENDCHAR
STARTCHAR C009f
ENCODING 65166
SWIDTH 480 0
DWIDTH 8 0
BBX 8 16 0 -4
BITMAP
10
30
18
10
10
10
10
10
0F
07
00
00
00
00
00
00
ENDCHAR
STARTCHAR C00c8
ENCODING 65167
SWIDTH 480 0
DWIDTH 8 0
BBX 8 16 0 -4
BITMAP
00
00
00
00
00
81
81
81
FF
7E
00
18
00
00
00
00
ENDCHAR
STARTCHAR C00c8
ENCODING 65168
SWIDTH 480 0
DWIDTH 8 0
BBX 8 16 0 -4
BITMAP
00
00
00
00
00
81
81
81
FF
7E
00
18
00
00
00
00
ENDCHAR
STARTCHAR C00eb
ENCODING 65169
SWIDTH 480 0
DWIDTH 8 0
BBX 8 16 0 -4
BITMAP
00
00
00
00
00
01
03
03
FE
FC
00
06
00
00
00
00
ENDCHAR
STARTCHAR C00eb
ENCODING 65170
SWIDTH 480 0
DWIDTH 8 0
BBX 8 16 0 -4
BITMAP
00
00
00
00
00
01
03
03
FE
FC
00
06
00
00
00
00
ENDCHAR
STARTCHAR C00c9
ENCODING 65171
SWIDTH 480 0
DWIDTH 8 0
BBX 8 16 0 -4
BITMAP
00
00
33
00
06
0F
11
11
1F
0E
00
00
00
00
00
00
ENDCHAR
STARTCHAR C00c9
ENCODING 65172
SWIDTH 480 0
DWIDTH 8 0
BBX 8 16 0 -4
BITMAP
00
00
33
00
06
0F
11
11
1F
0E
00
00
00
00
00
00
ENDCHAR
STARTCHAR C00ca
ENCODING 65173
SWIDTH 480 0
DWIDTH 8 0
BBX 8 16 0 -4
BITMAP
00
00
00
36
00
81
81
81
FF
7E
00
00
00
00
00
00
ENDCHAR
STARTCHAR C00ca
ENCODING 65174
SWIDTH 480 0
DWIDTH 8 0
BBX 8 16 0 -4
BITMAP
00
00
00
36
00
81
81
81
FF
7E
00
00
00
00
00
00
ENDCHAR
STARTCHAR C00ec
ENCODING 65175
SWIDTH 480 0
DWIDTH 8 0
BBX 8 16 0 -4
BITMAP
00
00
00
33
00
01
03
03
FE
FC
00
00
00
00
00
00
ENDCHAR
STARTCHAR C00ec
ENCODING 65176
SWIDTH 480 0
DWIDTH 8 0
BBX 8 16 0 -4
BITMAP
00
00
00
33
00
01
03
03
FE
FC
00
00
00
00
00
00
ENDCHAR
STARTCHAR C00cb
ENCODING 65177
SWIDTH 480 0
DWIDTH 8 0
BBX 8 16 0 -4
BITMAP
00
00
18
66
00
81
81
81
FF
7E
00
00
00
00
00
00
ENDCHAR
STARTCHAR C00cb
ENCODING 65178
SWIDTH 480 0
DWIDTH 8 0
BBX 8 16 0 -4
BITMAP
00
00
18
66
00
81
81
81
FF
7E
00
00
00
00
00
00
ENDCHAR
STARTCHAR C00ed
ENCODING 65179
SWIDTH 480 0
DWIDTH 8 0
BBX 8 16 0 -4
BITMAP
00
00
0C
33
00
01
03
03
FE
FC
00
00
00
00
00
00
ENDCHAR
STARTCHAR C00ed
ENCODING 65180
SWIDTH 480 0
DWIDTH 8 0
BBX 8 16 0 -4
BITMAP
00
00
0C
33
00
01
03
03
FE
FC
00
00
00
00
00
00
ENDCHAR
STARTCHAR C00cc
ENCODING 65181
SWIDTH 480 0
DWIDTH 8 0
BBX 8 16 0 -4
BITMAP
00
00
00
00
00
38
7F
0F
10
20
46
40
3F
1E
00
00
ENDCHAR
STARTCHAR C00cc
ENCODING 65182
SWIDTH 480 0
DWIDTH 8 0
BBX 8 16 0 -4
BITMAP
00
00
00
00
00
38
7F
0E
11
20
46
40
3F
1E
00
00
ENDCHAR
STARTCHAR C00ee
ENCODING 65183
SWIDTH 480 0
DWIDTH 8 0
BBX 8 16 0 -4
BITMAP
00
00
00
00
00
18
3F
07
F8
F0
00
18
00
00
00
00
ENDCHAR
STARTCHAR C00ee
ENCODING 65184
SWIDTH 480 0
DWIDTH 8 0
BBX 8 16 0 -4
BITMAP
00
00
00
00
00
18
3F
07
F9
F0
00
18
00
00
00
00
ENDCHAR
STARTCHAR C00cd
ENCODING 65185
SWIDTH 480 0
DWIDTH 8 0
BBX 8 16 0 -4
BITMAP
00
00
00
00
00
38
7F
0F
10
20
40
40
3F
1E
00
00
ENDCHAR
STARTCHAR C00cc
ENCODING 65186
SWIDTH 480 0
DWIDTH 8 0
BBX 8 16 0 -4
BITMAP
00
00
00
00
00
38
7F
0E
11
20
40
40
3F
1E
00
00
ENDCHAR
STARTCHAR C00ef
ENCODING 65187
SWIDTH 480 0
DWIDTH 8 0
BBX 8 16 0 -4
BITMAP
00
00
00
00
00
18
3F
07
F8
F0
00
00
00
00
00
00
ENDCHAR
STARTCHAR C00ef
ENCODING 65188
SWIDTH 480 0
DWIDTH 8 0
BBX 8 16 0 -4
BITMAP
00
00
00
00
00
18
3F
07
F9
F0
00
00
00
00
00
00
ENDCHAR
STARTCHAR C00ce
ENCODING 65189
SWIDTH 480 0
DWIDTH 8 0
BBX 8 16 0 -4
BITMAP
00
00
00
18
00
38
7F
0F
10
20
40
40
3F
1E
00
00
ENDCHAR
STARTCHAR C00cc
ENCODING 65190
SWIDTH 480 0
DWIDTH 8 0
BBX 8 16 0 -4
BITMAP
00
00
00
18
00
38
7F
0E
11
20
40
40
3F
1E
00
00
ENDCHAR
STARTCHAR C00f0
ENCODING 65191
SWIDTH 480 0
DWIDTH 8 0
BBX 8 16 0 -4
BITMAP
00
00
00
18
00
18
3F
07
F8
F0
00
00
00
00
00
00
ENDCHAR
STARTCHAR C00f0
ENCODING 65192
SWIDTH 480 0
DWIDTH 8 0
BBX 8 16 0 -4
BITMAP
00
00
00
18
00
18
3F
07
F9
F0
00
00
00
00
00
00
ENDCHAR
STARTCHAR C00cf
ENCODING 65193
SWIDTH 480 0
DWIDTH 8 0
BBX 8 16 0 -4
BITMAP
00
00
00
00
0C
1E
03
01
23
7E
3C
00
00
00
00
00
ENDCHAR
STARTCHAR C00cf
ENCODING 65194
SWIDTH 480 0
DWIDTH 8 0
BBX 8 16 0 -4
BITMAP
00
00
00
00
0C
1E
03
01
23
7E
3C
00
00
00
00
00
ENDCHAR
STARTCHAR C00d0
ENCODING 65195
SWIDTH 480 0
DWIDTH 8 0
BBX 8 16 0 -4
BITMAP
00
00
0C
00
0C
1E
03
01
23
7E
3C
00
00
00
00
00
ENDCHAR
STARTCHAR C00d0
ENCODING 65196
SWIDTH 480 0
DWIDTH 8 0
BBX 8 16 0 -4
BITMAP
00
00
0C
00
0C
1E
03
01
23
7E
3C
00
00
00
00
00
ENDCHAR
STARTCHAR C00d1
ENCODING 65197
SWIDTH 480 0
DWIDTH 8 0
BBX 8 16 0 -4
BITMAP
00
00
00
00
00
02
07
03
01
01
02
7C
38
00
00
00
ENDCHAR
STARTCHAR C00d1
ENCODING 65198
SWIDTH 480 0
DWIDTH 8 0
BBX 8 16 0 -4
BITMAP
00
00
00
00
00
02
07
03
01
01
02
7C
38
00
00
00
ENDCHAR
STARTCHAR C00d2
ENCODING 65199
SWIDTH 480 0
DWIDTH 8 0
BBX 8 16 0 -4
BITMAP
00
00
00
06
00
02
07
03
01
01
02
7C
38
00
00
00
ENDCHAR
STARTCHAR C00d2
ENCODING 65200
SWIDTH 480 0
DWIDTH 8 0
BBX 8 16 0 -4
BITMAP
00
00
00
06
00
02
07
03
01
01
02
7C
38
00
00
00
ENDCHAR
STARTCHAR C00d3
ENCODING 65201
SWIDTH 480 0
DWIDTH 8 0
BBX 8 16 0 -4
BITMAP
00
00
00
00
00
11
15
1F
0A
84
84
FC
78
00
00
00
ENDCHAR
STARTCHAR C00d3
ENCODING 65202
SWIDTH 480 0
DWIDTH 8 0
BBX 8 16 0 -4
BITMAP
00
00
00
00
00
00
11
15
1F
0A
84
84
FC
78
00
00
ENDCHAR
STARTCHAR C00f1
ENCODING 65203
SWIDTH 480 0
DWIDTH 8 0
BBX 8 16 0 -4
BITMAP
00
00
00
00
00
11
15
15
FF
EA
00
00
00
00
00
00
ENDCHAR
STARTCHAR C00f1
ENCODING 65204
SWIDTH 480 0
DWIDTH 8 0
BBX 8 16 0 -4
BITMAP
00
00
00
00
00
11
15
15
FF
EA
00
00
00
00
00
00
ENDCHAR
STARTCHAR C00d4
ENCODING 65205
SWIDTH 480 0
DWIDTH 8 0
BBX 8 16 0 -4
BITMAP
00
00
04
11
00
11
15
1F
0A
84
84
FC
78
00
00
00
ENDCHAR
STARTCHAR C00d4
ENCODING 65206
SWIDTH 480 0
DWIDTH 8 0
BBX 8 16 0 -4
BITMAP
00
00
00
04
11
00
11
15
1F
0A
84
84
FC
78
00
00
ENDCHAR
STARTCHAR C00f2
ENCODING 65207
SWIDTH 480 0
DWIDTH 8 0
BBX 8 16 0 -4
BITMAP
00
00
0C
33
00
11
15
15
FF
EA
00
00
00
00
00
00
ENDCHAR
STARTCHAR C00f2
ENCODING 65208
SWIDTH 480 0
DWIDTH 8 0
BBX 8 16 0 -4
BITMAP
00
00
0C
33
00
11
15
15
FF
EA
00
00
00
00
00
00
ENDCHAR
STARTCHAR C00d5
ENCODING 65209
SWIDTH 480 0
DWIDTH 8 0
BBX 8 16 0 -4
BITMAP
00
00
00
00
0E
11
3F
1E
08
84
84
FC
78
00
00
00
ENDCHAR
STARTCHAR C00d5
ENCODING 65210
SWIDTH 480 0
DWIDTH 8 0
BBX 8 16 0 -4
BITMAP
00
00
00
00
00
0E
11
3F
1E
08
84
84
FC
78
00
00
ENDCHAR
STARTCHAR C00f3
ENCODING 65211
SWIDTH 480 0
DWIDTH 8 0
BBX 8 16 0 -4
BITMAP
00
00
00
00
02
07
2B
31
FE
DC
00
00
00
00
00
00
ENDCHAR
STARTCHAR C00f3
ENCODING 65212
SWIDTH 480 0
DWIDTH 8 0
BBX 8 16 0 -4
BITMAP
00
00
00
00
02
07
2B
31
FE
DC
00
00
00
00
00
00
ENDCHAR
STARTCHAR C00d6
ENCODING 65213
SWIDTH 480 0
DWIDTH 8 0
BBX 8 16 0 -4
BITMAP
00
00
06
00
0E
11
3F
1E
08
84
84
FC
78
00
00
00
ENDCHAR
STARTCHAR C00d6
ENCODING 65214
SWIDTH 480 0
DWIDTH 8 0
BBX 8 16 0 -4
BITMAP
00
00
00
06
00
0E
11
3F
1E
08
84
84
FC
78
00
00
ENDCHAR
STARTCHAR C00f4
ENCODING 65215
SWIDTH 480 0
DWIDTH 8 0
BBX 8 16 0 -4
BITMAP
00
00
0C
00
02
07
2B
31
FE
DC
00
00
00
00
00
00
ENDCHAR
STARTCHAR C00f4
ENCODING 65216
SWIDTH 480 0
DWIDTH 8 0
BBX 8 16 0 -4
BITMAP
00
00
0C
00
02
07
2B
31
FE
DC
00
00
00
00
00
00
ENDCHAR
STARTCHAR C00d7
ENCODING 65217
SWIDTH 480 0
DWIDTH 8 0
BBX 8 16 0 -4
BITMAP
10
30
18
10
12
17
1B
91
FE
7C
00
00
00
00
00
00
ENDCHAR
STARTCHAR C00d7
ENCODING 65218
SWIDTH 480 0
DWIDTH 8 0
BBX 8 16 0 -4
BITMAP
10
30
18
10
12
17
1B
91
FF
7C
00
00
00
00
00
00
ENDCHAR
STARTCHAR C00d7
ENCODING 65219
SWIDTH 480 0
DWIDTH 8 0
BBX 8 16 0 -4
BITMAP
10
30
18
10
12
17
1B
11
FE
FC
00
00
00
00
00
00
ENDCHAR
STARTCHAR C00d7
ENCODING 65220
SWIDTH 480 0
DWIDTH 8 0
BBX 8 16 0 -4
BITMAP
10
30
18
10
12
17
1B
11
FF
FC
00
00
00
00
00
00
ENDCHAR
STARTCHAR C00d7
ENCODING 65221
SWIDTH 480 0
DWIDTH 8 0
BBX 8 16 0 -4
BITMAP
10
33
18
10
12
17
1B
91
FE
7C
00
00
00
00
00
00
ENDCHAR
STARTCHAR C00d7
ENCODING 65222
SWIDTH 480 0
DWIDTH 8 0
BBX 8 16 0 -4
BITMAP
10
33
18
10
12
17
1B
91
FF
7C
00
00
00
00
00
00
ENDCHAR
STARTCHAR C00d7
ENCODING 65223
SWIDTH 480 0
DWIDTH 8 0
BBX 8 16 0 -4
BITMAP
10
33
18
10
12
17
1B
11
FE
FC
00
00
00
00
00
00
ENDCHAR
STARTCHAR C00d7
ENCODING 65224
SWIDTH 480 0
DWIDTH 8 0
BBX 8 16 0 -4
BITMAP
10
33
18
10
12
17
1B
11
FF
FC
00
00
00
00
00
00
ENDCHAR
STARTCHAR C00d9
ENCODING 65225
SWIDTH 480 0
DWIDTH 8 0
BBX 8 16 0 -4
BITMAP
00
00
00
30
78
40
40
38
40
80
80
80
7E
3C
00
00
ENDCHAR
STARTCHAR C0099
ENCODING 65226
SWIDTH 480 0
DWIDTH 8 0
BBX 8 16 0 -4
BITMAP
00
00
00
F0
F8
48
30
30
4F
87
80
80
7E
3C
00
00
ENDCHAR
STARTCHAR C00f5
ENCODING 65227
SWIDTH 480 0
DWIDTH 8 0
BBX 8 16 0 -4
BITMAP
00
00
00
00
06
0F
10
10
FF
FE
00
00
00
00
00
00
ENDCHAR
STARTCHAR C0097
ENCODING 65228
SWIDTH 480 0
DWIDTH 8 0
BBX 8 16 0 -4
BITMAP
00
00
00
00
3E
3F
09
06
F9
F0
00
00
00
00
00
00
ENDCHAR
STARTCHAR C00da
ENCODING 65229
SWIDTH 480 0
DWIDTH 8 0
BBX 8 16 0 -4
BITMAP
00
30
00
30
78
40
40
38
40
80
80
80
7E
3C
00
00
ENDCHAR
STARTCHAR C009a
ENCODING 65230
SWIDTH 480 0
DWIDTH 8 0
BBX 8 16 0 -4
BITMAP
00
30
00
F0
F8
48
30
30
4F
87
80
80
7E
3C
00
00
ENDCHAR
STARTCHAR C00f6
ENCODING 65231
SWIDTH 480 0
DWIDTH 8 0
BBX 8 16 0 -4
BITMAP
00
00
06
00
06
0F
10
10
FF
FE
00
00
00
00
00
00
ENDCHAR
STARTCHAR C0098
ENCODING 65232
SWIDTH 480 0
DWIDTH 8 0
BBX 8 16 0 -4
BITMAP
00
00
0C
00
3E
3F
09
06
F9
F0
00
00
00
00
00
00
ENDCHAR
STARTCHAR C00e1
ENCODING 65233
SWIDTH 480 0
DWIDTH 8 0
BBX 8 16 0 -4
BITMAP
00
00
06
00
02
07
05
87
81
FF
7E
00
00
00
00
00
ENDCHAR
STARTCHAR C00e1
ENCODING 65234
SWIDTH 480 0
DWIDTH 8 0
BBX 8 16 0 -4
BITMAP
00
00
06
00
02
07
05
87
81
FF
7E
00
00
00
00
00
ENDCHAR
STARTCHAR C00f7
ENCODING 65235
SWIDTH 480 0
DWIDTH 8 0
BBX 8 16 0 -4
BITMAP
00
0C
00
0C
1E
13
1F
01
FF
FE
00
00
00
00
00
00
ENDCHAR
STARTCHAR C00f7
ENCODING 65236
SWIDTH 480 0
DWIDTH 8 0
BBX 8 16 0 -4
BITMAP
00
0C
00
0C
1E
13
1F
01
FF
FE
00
00
00
00
00
00
ENDCHAR
STARTCHAR C00e2
ENCODING 65237
SWIDTH 480 0
DWIDTH 8 0
BBX 8 16 0 -4
BITMAP
00
00
1B
00
04
0E
09
0B
07
41
42
7C
38
00
00
00
ENDCHAR
STARTCHAR C00e2
ENCODING 65238
SWIDTH 480 0
DWIDTH 8 0
BBX 8 16 0 -4
BITMAP
00
00
1B
00
04
0E
09
0B
07
41
42
7C
38
00
00
00
ENDCHAR
STARTCHAR C00f8
ENCODING 65239
SWIDTH 480 0
DWIDTH 8 0
BBX 8 16 0 -4
BITMAP
00
00
33
00
06
0F
09
07
FF
FE
00
00
00
00
00
00
ENDCHAR
STARTCHAR C00f8
ENCODING 65240
SWIDTH 480 0
DWIDTH 8 0
BBX 8 16 0 -4
BITMAP
00
00
33
00
06
0F
09
07
FF
FE
00
00
00
00
00
00
ENDCHAR
STARTCHAR C00e3
ENCODING 65241
SWIDTH 480 0
DWIDTH 8 0
BBX 8 16 0 -4
BITMAP
01
03
01
19
21
19
21
01
81
81
FF
7E
00
00
00
00
ENDCHAR
STARTCHAR C00e3
ENCODING 65242
SWIDTH 480 0
DWIDTH 8 0
BBX 8 16 0 -4
BITMAP
01
03
01
19
21
19
21
01
81
81
FF
7E
00
00
00
00
ENDCHAR
STARTCHAR C00f9
ENCODING 65243
SWIDTH 480 0
DWIDTH 8 0
BBX 8 16 0 -4
BITMAP
01
03
04
08
10
10
0E
01
FF
FE
00
00
00
00
00
00
ENDCHAR
STARTCHAR C00f9
ENCODING 65244
SWIDTH 480 0
DWIDTH 8 0
BBX 8 16 0 -4
BITMAP
01
03
04
08
10
10
0E
01
FF
FE
00
00
00
00
00
00
ENDCHAR
STARTCHAR C00e4
ENCODING 65245
SWIDTH 480 0
DWIDTH 8 0
BBX 8 16 0 -4
BITMAP
01
03
03
01
01
01
01
01
81
81
FF
7E
00
00
00
00
ENDCHAR
STARTCHAR C00e4
ENCODING 65246
SWIDTH 480 0
DWIDTH 8 0
BBX 8 16 0 -4
BITMAP
01
03
03
01
01
01
01
01
81
81
FF
7E
00
00
00
00
ENDCHAR
STARTCHAR C00fa
ENCODING 65247
SWIDTH 480 0
DWIDTH 8 0
BBX 8 16 0 -4
BITMAP
01
03
03
01
01
01
01
01
FE
FC
00
00
00
00
00
00
ENDCHAR
STARTCHAR C00fa
ENCODING 65248
SWIDTH 480 0
DWIDTH 8 0
BBX 8 16 0 -4
BITMAP
01
03
03
01
01
01
01
01
FE
FC
00
00
00
00
00
00
ENDCHAR
STARTCHAR C00e5
ENCODING 65249
SWIDTH 480 0
DWIDTH 8 0
BBX 8 16 0 -4
BITMAP
00
00
00
00
0C
16
07
1F
22
20
20
20
20
20
00
00
ENDCHAR
STARTCHAR C00e5
ENCODING 65250
SWIDTH 480 0
DWIDTH 8 0
BBX 8 16 0 -4
BITMAP
00
00
00
00
0C
16
07
1F
21
20
20
20
20
20
00
00
ENDCHAR
STARTCHAR C00fb
ENCODING 65251
SWIDTH 480 0
DWIDTH 8 0
BBX 8 16 0 -4
BITMAP
00
00
00
00
00
0C
16
13
FB
E6
00
00
00
00
00
00
ENDCHAR
STARTCHAR C00fb
ENCODING 65252
SWIDTH 480 0
DWIDTH 8 0
BBX 8 16 0 -4
BITMAP
00
00
00
00
00
0C
16
13
FB
E6
00
00
00
00
00
00
ENDCHAR
STARTCHAR C00e6
ENCODING 65253
SWIDTH 480 0
DWIDTH 8 0
BBX 8 16 0 -4
BITMAP
00
00
00
18
00
01
03
23
41
41
41
7E
3C
00
00
00
ENDCHAR
STARTCHAR C00e6
ENCODING 65254
SWIDTH 480 0
DWIDTH 8 0
BBX 8 16 0 -4
BITMAP
00
00
00
18
00
01
03
23
41
41
41
7E
3C
00
00
00
ENDCHAR
STARTCHAR C00fc
ENCODING 65255
SWIDTH 480 0
DWIDTH 8 0
BBX 8 16 0 -4
BITMAP
00
00
00
03
00
01
03
03
FE
FC
00
00
00
00
00
00
ENDCHAR
STARTCHAR C00fc
ENCODING 65256
SWIDTH 480 0
DWIDTH 8 0
BBX 8 16 0 -4
BITMAP
00
00
00
03
00
01
03
03
FE
FC
00
00
00
00
00
00
ENDCHAR
STARTCHAR C00c9
ENCODING 65257
SWIDTH 480 0
DWIDTH 8 0
BBX 8 16 0 -4
BITMAP
00
00
00
00
06
0F
11
11
1F
0E
00
00
00
00
00
00
ENDCHAR
STARTCHAR C00c9
ENCODING 65258
SWIDTH 480 0
DWIDTH 8 0
BBX 8 16 0 -4
BITMAP
00
00
00
00
06
0F
11
11
1F
0E
00
00
00
00
00
00
ENDCHAR
STARTCHAR C00fd
ENCODING 65259
SWIDTH 480 0
DWIDTH 8 0
BBX 8 16 0 -4
BITMAP
00
00
00
38
1C
0A
15
15
F9
EF
06
00
00
00
00
00
ENDCHAR
STARTCHAR C009b
ENCODING 65260
SWIDTH 480 0
DWIDTH 8 0
BBX 8 16 0 -4
BITMAP
00
00
00
02
07
09
09
0A
FF
FB
0A
09
07
02
00
00
ENDCHAR
STARTCHAR C00e8
ENCODING 65261
SWIDTH 480 0
DWIDTH 8 0
BBX 8 16 0 -4
BITMAP
00
00
00
00
00
0C
1E
11
1F
0F
02
7C
38
00
00
00
ENDCHAR
STARTCHAR C00e8
ENCODING 65262
SWIDTH 480 0
DWIDTH 8 0
BBX 8 16 0 -4
BITMAP
00
00
00
00
00
0C
1E
11
1F
0F
02
7C
38
00
00
00
ENDCHAR
STARTCHAR C00e9
ENCODING 65263
SWIDTH 480 0
DWIDTH 8 0
BBX 8 16 0 -4
BITMAP
00
00
00
00
03
07
08
0E
47
41
41
7E
3C
00
00
00
ENDCHAR
STARTCHAR C008f
ENCODING 65264
SWIDTH 480 0
DWIDTH 8 0
BBX 8 16 0 -4
BITMAP
00
00
00
00
00
00
0C
1E
13
89
84
84
FC
78
00
00
ENDCHAR
STARTCHAR C00ea
ENCODING 65265
SWIDTH 480 0
DWIDTH 8 0
BBX 8 16 0 -4
BITMAP
00
00
00
03
07
08
0E
47
41
41
7E
3C
00
36
00
00
ENDCHAR
STARTCHAR C0090
ENCODING 65266
SWIDTH 480 0
DWIDTH 8 0
BBX 8 16 0 -4
BITMAP
00
00
00
00
00
0C
1E
92
8B
85
FC
78
00
6C
00
00
ENDCHAR
STARTCHAR C00fe
ENCODING 65267
SWIDTH 480 0
DWIDTH 8 0
BBX 8 16 0 -4
BITMAP
00
00
00
00
00
01
03
03
FE
FC
00
33
00
00
00
00
ENDCHAR
STARTCHAR C00fe
ENCODING 65268
SWIDTH 480 0
DWIDTH 8 0
BBX 8 16 0 -4
BITMAP
00
00
00
00
00
01
03
03
FE
FC
00
33
00
00
00
00
ENDCHAR
STARTCHAR C00a2
ENCODING 65269
SWIDTH 480 0
DWIDTH 8 0
BBX 8 16 0 -4
BITMAP
01
3B
43
19
19
0D
05
05
7F
3E
00
00
00
00
00
00
ENDCHAR
STARTCHAR C00a2
ENCODING 65270
SWIDTH 480 0
DWIDTH 8 0
BBX 8 16 0 -4
BITMAP
01
3B
43
19
19
0D
05
05
7F
3E
00
00
00
00
00
00
ENDCHAR
STARTCHAR C00a3
ENCODING 65271
SWIDTH 480 0
DWIDTH 8 0
BBX 8 16 0 -4
BITMAP
19
23
1B
21
09
0D
05
05
7F
3E
00
00
00
00
00
00
ENDCHAR
STARTCHAR C00a3
ENCODING 65272
SWIDTH 480 0
DWIDTH 8 0
BBX 8 16 0 -4
BITMAP
19
23
1B
21
09
0D
05
05
7F
3E
00
00
00
00
00
00
ENDCHAR
STARTCHAR C00a4
ENCODING 65273
SWIDTH 480 0
DWIDTH 8 0
BBX 8 16 0 -4
BITMAP
01
03
13
39
19
0D
05
05
7F
3E
00
0C
10
3C
00
00
ENDCHAR
STARTCHAR C00a4
ENCODING 65274
SWIDTH 480 0
DWIDTH 8 0
BBX 8 16 0 -4
BITMAP
01
03
13
39
19
0D
05
05
7F
3E
00
0C
10
3C
00
00
ENDCHAR
STARTCHAR C00a1
ENCODING 65275
SWIDTH 480 0
DWIDTH 8 0
BBX 8 16 0 -4
BITMAP
01
43
33
39
0D
05
05
05
7F
3E
00
00
00
00
00
00
ENDCHAR
STARTCHAR C00a1
ENCODING 65276
SWIDTH 480 0
DWIDTH 8 0
BBX 8 16 0 -4
BITMAP
01
43
33
39
0D
05
05
05
7F
3E
00
00
00
00
00
00
ENDCHAR
ENDFONT
